<?xml version="1.0" encoding="utf-8"?>
<!-- Generator: Adobe Illustrator 16.0.0, SVG Export Plug-In . SVG Version: 6.00 Build 0)  -->
<!DOCTYPE svg PUBLIC "-//W3C//DTD SVG 1.1//EN" "http://www.w3.org/Graphics/SVG/1.1/DTD/svg11.dtd">
<svg version="1.1" id="Layer_1" xmlns="http://www.w3.org/2000/svg" xmlns:xlink="http://www.w3.org/1999/xlink" x="0px" y="0px"
	 width="512px" height="512px" viewBox="0 0 512 512" enable-background="new 0 0 512 512" xml:space="preserve">
<path d="M178.906,357.094l-64.5,111.719C45.5,422.938,0,344.594,0,255.594C0,119.625,106.125,8.719,240,0.406v128.813
	c-62.969,7.969-112,61.281-112,126.375C128,297.125,148.188,333.719,178.906,357.094z M357.5,178.5L469.219,114
	C426.125,49.25,354.313,5.5,272,0.406v128.813C306.875,133.625,337.188,151.844,357.5,178.5z M485.063,141.813l-111.094,64.156
	C380.406,221.219,384,238,384,255.594c0,70.594-57.406,128-128,128c-17.594,0-34.375-3.563-49.625-10.031l-64.156,111.094
	c34.313,17.094,72.844,26.938,113.781,26.938c141.375,0,256-114.625,256-256C512,214.656,502.156,176.125,485.063,141.813z"/>
</svg>
