<?xml version="1.0" encoding="UTF-8" standalone="no"?>
<svg
   xmlns:dc="http://purl.org/dc/elements/1.1/"
   xmlns:cc="http://creativecommons.org/ns#"
   xmlns:rdf="http://www.w3.org/1999/02/22-rdf-syntax-ns#"
   xmlns:svg="http://www.w3.org/2000/svg"
   xmlns="http://www.w3.org/2000/svg"
   xmlns:sodipodi="http://sodipodi.sourceforge.net/DTD/sodipodi-0.dtd"
   xmlns:inkscape="http://www.inkscape.org/namespaces/inkscape"
   height="540"
   version="1.1"
   width="540"
   id="svg2"
   inkscape:version="0.48.5 r10040"
   sodipodi:docname="bottle.svg"
  preserveAspectRatio="xMidYMid meet"
  viewBox="0 0 100% 100%"
   >
  <metadata
     id="metadata69">
    <rdf:RDF>
      <cc:Work
         rdf:about="">
        <dc:format>image/svg+xml</dc:format>
        <dc:type
           rdf:resource="http://purl.org/dc/dcmitype/StillImage" />
        <dc:title></dc:title>
      </cc:Work>
    </rdf:RDF>
  </metadata>
  <defs
     id="defs67" />
  <sodipodi:namedview
     pagecolor="#ffffff"
     bordercolor="#666666"
     borderopacity="1"
     objecttolerance="10"
     gridtolerance="10"
     guidetolerance="10"
     inkscape:pageopacity="0"
     inkscape:pageshadow="2"
     inkscape:window-width="1373"
     inkscape:window-height="814"
     id="namedview65"
     showgrid="false"
     inkscape:zoom="0.96637927"
     inkscape:cx="480"
     inkscape:cy="255.79664"
     inkscape:window-x="0"
     inkscape:window-y="0"
     inkscape:window-maximized="0"
     inkscape:current-layer="strokes" />
  <g
     id="LineSet"
     inkscape:label="LineSet">
    <g
       id="fills"
       inkscape:groupmode="layer"
       inkscape:label="fills">
      <path
         d="m 334.86367,381.72063 -0.0413,-6.82335 -0.0536,-6.8462 -0.0677,-6.81455 -0.0817,-6.73016 -0.0985,-6.59215 -0.11603,-6.39963 -0.13626,-6.15438 -0.15647,-5.85461 -0.17845,-5.5021 -0.20307,-5.09597 -0.22504,-4.71357 -0.2479,-4.3558 -0.26987,-4.0235 -0.28922,-3.71495 -0.31031,-3.43101 -0.32789,-3.17169 -0.34636,-2.93785 -0.36393,-2.72776 -0.37976,-2.54227 -0.39558,-2.38228 -0.41053,-2.24515 -0.42371,-2.13438 -0.43778,-2.04648 -0.4492,-1.98494 -0.46064,-1.94626 -0.47118,-1.93307 -0.48436,-1.92693 -0.49668,-1.92692 -0.51338,-1.93308 -0.5292,-1.94626 -0.54854,-1.96648 -0.56876,-1.99373 -0.58985,-2.02626 -0.61359,-2.06581 -0.63909,-2.11241 -0.66545,-2.16603 -0.69271,-2.2258 -0.72348,-2.29174 -0.75424,-2.3647 -0.78764,-2.44469 -0.82194,-2.52997 -0.85797,-2.62402 -0.88962,-2.70666 -0.91599,-2.78138 -0.93797,-2.84731 -0.95555,-2.90269 -0.96785,-2.94928 -0.97577,-2.98708 -0.97929,-3.01521 -0.97664,-3.03543 -0.97138,-3.0451 -0.95994,-3.0451 -0.94412,-3.03807 -0.9239,-3.02049 -0.89402,-2.97741 -0.86588,-2.94576 -0.83424,-2.91236 -0.79556,-2.85962 -0.75688,-2.8139 -0.7182,-2.77874 -0.68128,-2.75237 -0.64436,-2.73479 -0.60656,-2.72688 -0.57139,-2.72687 -0.53536,-2.73831 -0.49931,-2.75413 -0.46063,-2.75676 -0.43075,-2.8227 -0.39734,-2.8684 -0.36305,-2.92467 -0.33141,-2.98972 -0.29889,-3.06356 -0.26635,-3.14619 -0.23472,-3.22091 -0.20482,-3.29564 -0.17845,-3.36596 -0.15296,-3.402 -0.12922,-3.41959 -0.10813,-3.41694 -0.0879,-3.39761 -0.0703,-3.35893 -0.0554,-3.30091 -0.0413,-3.22531 -0.029,-3.12949 -0.0193,-3.01609 -0.0123,-2.88423 -0.005,-2.73215 -0.003,-2.56249 0,-2.374367 0,-2.166909 8.8e-4,-1.970876 0.002,-1.785392 0.004,-1.611336 0.007,-1.449587 0.01,-1.274652 0.0141,-1.134001 0.0185,-1.027633 0.0246,-0.908959 0.0308,-0.802591 0.0369,-0.705893 0.0413,-0.575792 0.0528,-0.548539 0.0563,-0.44481 0.0677,-0.413163 0.0747,-0.360419 0.08,-0.317344 0.0897,-0.301522 0.0958,-0.27339 0.10021,-0.250535 0.10373,-0.231196 0.10285,-0.207461 0.10725,-0.19779 0.12043,-0.207461 0.0985,-0.159991 0.12746,-0.201307 0.12395,-0.193395 0.12043,-0.189001 0.11516,-0.186363 0.0325,-0.05274 0.109,-0.187242 0.029,-0.05274 0.1011,-0.189 0.0264,-0.05362 0.0914,-0.193396 0.0229,-0.05362 0.0809,-0.199549 0.0202,-0.0545 0.0712,-0.205703 0.0176,-0.0545 0.0615,-0.212735 0.0141,-0.0545 0.0527,-0.218009 0.0439,-0.222405 0.0114,-0.05538 0.0369,-0.22768 0.008,-0.05538 0.0308,-0.232954 0.0237,-0.23647 0.004,-0.05626 0.0193,-0.240865 0.0141,-0.244382 0.0105,-0.248777 0.006,-0.251414 0.002,-0.05626 0.004,-0.25493 0.002,-0.257568 8.8e-4,-0.260204 0,-0.261963 0,-0.264601 0,-0.266358 0,-0.267237 0,-0.268117 0,-0.268995 0,-0.269875 0,-0.268995 0,-0.269875 0,-0.268996 0,-0.267237 0,-0.267237 0,-0.264601 0,-0.263721 0,-0.261084 0,-0.259325 0,-0.25581 0,-0.252293 -8.8e-4,-0.250535 -8.8e-4,-0.24614 -0.003,-0.243502 -0.004,-0.239987 -0.007,-0.236469 -0.002,-0.05802 -0.009,-0.233833 -0.0123,-0.229437 -0.0158,-0.2268 -0.0193,-0.222405 -0.005,-0.0589 -0.0237,-0.218888 -0.0281,-0.216252 -0.009,-0.05802 -0.0334,-0.211856 -0.0396,-0.20834 -0.0123,-0.05802 -0.0448,-0.204823 -0.0149,-0.05802 -0.0519,-0.200428 -0.0589,-0.196912 -0.0185,-0.05802 -0.0659,-0.191638 -0.0211,-0.05802 -0.0747,-0.187242 -0.0237,-0.05714 -0.0826,-0.181967 -0.0272,-0.05714 -0.0914,-0.175814 -0.0308,-0.05714 -0.0334,-0.05626 -0.10021,-0.169661 -0.0369,-0.05626 -0.10988,-0.162628 -0.0396,-0.05538 -0.0431,-0.05626 -0.11955,-0.154716 -0.0457,-0.05538 -0.0484,-0.05626 -0.1301,-0.145926 -0.0519,-0.05538 -0.0545,-0.0545 -0.13977,-0.137135 -0.058,-0.0545 -0.0598,-0.0545 -0.0633,-0.0545 -0.1512,-0.127465 -0.0659,-0.05362 -0.0686,-0.05362 -0.0721,-0.05362 -0.16087,-0.116037 -0.0738,-0.05274 -0.0773,-0.05274 -0.08,-0.05274 -0.0826,-0.05186 -0.17054,-0.105489 -0.0853,-0.05099 -0.0879,-0.05186 -0.0914,-0.05099 -0.0932,-0.05099 -0.0967,-0.05011 -0.17845,-0.0923 -0.0985,-0.05011 -0.10109,-0.04923 -0.10461,-0.04923 -0.10637,-0.04923 -0.109,-0.04835 -0.11252,-0.04835 -0.18461,-0.07824 -0.11428,-0.04747 -0.11603,-0.04747 -0.11868,-0.04747 -0.12131,-0.04659 -0.12395,-0.04571 -0.12659,-0.04659 -0.12922,-0.04571 -0.13186,-0.04483 -0.1345,-0.04483 -0.18548,-0.06153 -0.13538,-0.04395 -0.13801,-0.04395 -0.13977,-0.04307 -0.14241,-0.04307 -0.14505,-0.04308 -0.14768,-0.04219 -0.14945,-0.04132 -0.15208,-0.04132 -0.15471,-0.04132 -0.15648,-0.04044 -0.15911,-0.03956 -0.16087,-0.03956 -0.17669,-0.04307 -0.16087,-0.03868 -0.16351,-0.0378 -0.16614,-0.0378 -0.1679,-0.0378 -0.16967,-0.03692 -0.17141,-0.03604 -0.17406,-0.03604 -0.17669,-0.03516 -0.17758,-0.03516 -0.1802,-0.03428 -0.18197,-0.03428 -0.18373,-0.03341 -0.18548,-0.03253 -0.18724,-0.03252 -0.189,-0.03253 -0.19164,-0.03077 -0.19252,-0.03077 -0.19515,-0.03077 -0.19603,-0.02989 -0.19779,-0.02901 -0.19955,-0.02813 -0.20131,-0.02813 -0.20307,-0.02813 -0.20394,-0.02637 -0.12747,-0.0167 -0.20306,-0.02637 -0.20482,-0.02549 -0.20571,-0.02461 -0.20746,-0.02461 -0.20834,-0.02374 -0.21009,-0.02286 -0.21186,-0.02286 -0.21186,-0.02198 -0.21449,-0.0211 -0.21449,-0.02022 -0.21625,-0.02022 -0.21801,-0.02022 -0.21801,-0.01846 -0.21977,-0.01846 -0.22065,-0.01758 -0.22152,-0.01758 -0.22241,-0.0167 -0.22328,-0.01582 -0.22417,-0.01495 -0.22504,-0.01494 -0.22592,-0.01407 -0.2268,-0.01319 -0.22768,-0.01231 -0.22768,-0.01231 -0.22943,-0.01143 -0.22944,-0.01055 -0.23032,-0.01055 -0.23031,-0.0097 -0.2312,-0.0088 -0.2312,-0.0079 -0.23207,-0.007 -0.23295,-0.007 -0.23296,-0.0062 -0.23295,-0.0062 -0.23383,-0.0044 -0.23384,-0.0044 -0.23383,-0.0035 -0.23383,-0.0035 -0.23471,-0.0018 -0.23384,-0.0018 -0.23471,-8.79e-4 -0.23471,-8.79e-4 -0.23471,8.79e-4 -0.23471,8.79e-4 -0.23384,0.0018 -0.23471,0.0018 -0.23383,0.0035 -0.23383,0.0035 -0.23384,0.0044 -0.23383,0.0044 -0.23295,0.0062 -0.23296,0.0062 -0.23295,0.007 -0.23207,0.007 -0.2312,0.0079 -0.2312,0.0088 -0.23031,0.0097 -0.23032,0.01055 -0.22944,0.01055 -0.22855,0.01143 -0.22856,0.01231 -0.22768,0.01231 -0.2268,0.01319 -0.22592,0.01407 -0.22504,0.01494 -0.22417,0.01495 -0.22328,0.01582 -0.22241,0.0167 -0.22152,0.01758 -0.22065,0.01758 -0.21977,0.01846 -0.21801,0.01846 -0.21801,0.02022 -0.21625,0.01934 -0.21449,0.0211 -0.21361,0.0211 -0.21274,0.02198 -0.21186,0.02286 -0.21009,0.02286 -0.20834,0.02374 -0.20746,0.02461 -0.20571,0.02461 -0.20482,0.02549 -0.20306,0.02637 -0.12747,0.0167 -0.20394,0.02637 -0.20307,0.02813 -0.20131,0.02813 -0.19955,0.02813 -0.19779,0.02901 -0.19603,0.02989 -0.19515,0.03077 -0.19252,0.03077 -0.19164,0.03165 -0.189,0.03165 -0.18724,0.03252 -0.18548,0.03253 -0.18373,0.03341 -0.18197,0.03428 -0.1802,0.03428 -0.17758,0.03516 -0.17669,0.03516 -0.17406,0.03604 -0.17141,0.03604 -0.16967,0.03692 -0.1679,0.0378 -0.16614,0.0378 -0.16351,0.0378 -0.16087,0.03868 -0.17669,0.04307 -0.16087,0.03956 -0.15911,0.03956 -0.15648,0.04044 -0.15471,0.04132 -0.15208,0.04132 -0.14945,0.04132 -0.14768,0.04219 -0.14505,0.04308 -0.14241,0.04307 -0.13977,0.04307 -0.13801,0.04395 -0.13538,0.04395 -0.18548,0.06153 -0.1345,0.04483 -0.13186,0.04483 -0.12922,0.04571 -0.12659,0.04659 -0.12395,0.04571 -0.12131,0.04659 -0.11868,0.04747 -0.11603,0.04747 -0.11428,0.04747 -0.18461,0.07824 -0.11252,0.04835 -0.109,0.04835 -0.10637,0.04923 -0.10461,0.04923 -0.10109,0.04923 -0.0985,0.05011 -0.17845,0.0923 -0.0967,0.05011 -0.0932,0.05099 -0.0914,0.05099 -0.0879,0.05186 -0.0853,0.05099 -0.17054,0.105489 -0.0826,0.05186 -0.08,0.05274 -0.0773,0.05186 -0.0739,0.05275 -0.16087,0.116916 -0.0721,0.05362 -0.0686,0.05362 -0.0659,0.05362 -0.1512,0.127465 -0.0633,0.0545 -0.0598,0.0545 -0.058,0.0545 -0.13977,0.137135 -0.0545,0.0545 -0.0519,0.05538 -0.1301,0.145926 -0.0483,0.05626 -0.0457,0.05538 -0.11955,0.154716 -0.0431,0.05538 -0.0396,0.05626 -0.10988,0.162628 -0.0369,0.05626 -0.10021,0.169661 -0.0334,0.05626 -0.0308,0.05714 -0.0914,0.175814 -0.0272,0.05714 -0.0826,0.181967 -0.0237,0.05714 -0.0747,0.187242 -0.0211,0.05802 -0.0659,0.191638 -0.0185,0.05802 -0.0589,0.196912 -0.0519,0.200428 -0.0149,0.05802 -0.0448,0.204823 -0.0123,0.05802 -0.0396,0.20834 -0.0334,0.211856 -0.009,0.05802 -0.0281,0.216252 -0.0237,0.218888 -0.005,0.0589 -0.0193,0.222405 -0.0158,0.2268 -0.0123,0.229437 -0.009,0.233833 -0.002,0.05802 -0.007,0.236469 -0.004,0.239987 -0.003,0.243502 -8.8e-4,0.24614 -8.8e-4,0.250535 0,0.252293 0,0.25581 0,0.259325 0,0.261084 0,0.263721 0,0.264601 0,0.267237 0,0.267237 0,0.268996 0,0.269875 0,0.268995 0,0.269875 0,0.268995 0,0.268117 0,0.267237 0,0.266358 0,0.264601 0,0.261963 8.8e-4,0.260204 0.002,0.257568 0.004,0.25493 0.002,0.05626 0.006,0.251414 0.0105,0.248777 0.0141,0.244382 0.0193,0.240865 0.004,0.05626 0.0237,0.23647 0.0308,0.232954 0.008,0.05538 0.0369,0.22768 0.0114,0.05538 0.0439,0.222405 0.0527,0.218009 0.0141,0.0545 0.0615,0.212735 0.0176,0.0545 0.0712,0.205703 0.0202,0.0545 0.0809,0.199549 0.0229,0.05362 0.0914,0.193396 0.0264,0.05362 0.1011,0.189 0.029,0.05274 0.109,0.187242 0.0325,0.05274 0.11516,0.186363 0.12043,0.189001 0.12395,0.193395 0.12746,0.201307 0.0985,0.159991 0.12043,0.207461 0.10725,0.19779 0.10285,0.206582 0.10373,0.231195 0.10021,0.251415 0.0958,0.27427 0.0897,0.300642 0.08,0.317344 0.0747,0.361298 0.0677,0.412284 0.0563,0.44481 0.0528,0.548539 0.0413,0.575792 0.0369,0.705893 0.0308,0.802591 0.0246,0.908959 0.0185,1.027633 0.0141,1.134001 0.01,1.274652 0.007,1.449587 0.004,1.611336 0.002,1.786271 8.8e-4,1.969997 0,2.166909 0,2.374367 -0.003,2.56249 -0.005,2.73215 -0.0123,2.88423 -0.0193,3.01609 -0.029,3.12949 -0.0413,3.22531 -0.0554,3.30091 -0.0703,3.35893 -0.0879,3.39761 -0.10813,3.41694 -0.12922,3.41959 -0.15296,3.402 -0.17845,3.36596 -0.20482,3.29564 -0.23472,3.22091 -0.26635,3.14619 -0.29889,3.06356 -0.33141,2.98972 -0.36305,2.92467 -0.39734,2.8684 -0.43075,2.8227 -0.46063,2.75764 -0.49931,2.75325 -0.53536,2.73831 -0.57139,2.72687 -0.60656,2.72688 -0.64436,2.73479 -0.68128,2.75237 -0.7182,2.77874 -0.75688,2.8139 -0.79556,2.85962 -0.83424,2.91236 -0.865,2.94313 -0.8949,2.98004 -0.9239,3.02049 -0.94412,3.03807 -0.95994,3.0451 -0.97138,3.0451 -0.97664,3.03543 -0.97929,3.01521 -0.97577,2.98708 -0.96785,2.94928 -0.95555,2.90269 -0.93797,2.84731 -0.91599,2.78138 -0.88962,2.70666 -0.85797,2.62402 -0.82194,2.52997 -0.78764,2.44469 -0.75424,2.3647 -0.72348,2.29174 -0.69271,2.2258 -0.66545,2.16603 -0.63909,2.11241 -0.61359,2.06581 -0.58985,2.02626 -0.56876,1.99373 -0.54854,1.96648 -0.5292,1.94626 -0.51338,1.93308 -0.49668,1.92692 -0.48348,1.92693 -0.47206,1.93307 -0.46064,1.94626 -0.4492,1.98494 -0.43778,2.04648 -0.42371,2.13438 -0.41053,2.24515 -0.39558,2.38228 -0.37976,2.54227 -0.36393,2.72776 -0.34636,2.93785 -0.32789,3.17169 -0.31031,3.43101 -0.28922,3.71495 -0.26987,4.0235 -0.2479,4.3558 -0.22504,4.71357 -0.20307,5.09597 -0.17845,5.5021 -0.15647,5.85461 -0.13626,6.15438 -0.11603,6.39963 -0.0985,6.59215 -0.0817,6.73016 -0.0677,6.81455 -0.0536,6.8462 -0.0413,6.82335 -0.0317,6.74774 -0.022,6.61676 -0.0149,6.43392 -0.009,6.19745 -0.004,5.90559 -0.002,5.56188 0,5.16454 0,4.71182 0.002,4.28546 0.004,3.88198 0.009,3.50309 0.0149,3.14883 0.0229,2.81918 0.0325,2.51239 0.002,0.14241 0.0422,2.23371 0.0545,1.97527 0.0686,1.7432 0.0835,1.5331 0.10022,1.34937 0.0114,0.14857 0.11868,1.18938 0.13801,1.054 0.0202,0.14945 0.15999,0.94236 0.029,0.15032 0.18285,0.85446 0.0387,0.15032 0.20658,0.79116 0.0475,0.15032 0.23295,0.73051 0.0563,0.1512 0.26284,0.67161 0.065,0.15032 0.29449,0.61535 0.0739,0.15032 0.0826,0.14944 0.32789,0.56085 0.0914,0.14944 0.10022,0.14944 0.36393,0.50899 0.10901,0.14856 0.11691,0.14856 0.12659,0.14768 0.40086,0.458 0.13449,0.14681 0.14329,0.1468 0.1512,0.1468 0.43954,0.40789 0.15999,0.14593 0.1679,0.14505 0.17669,0.14504 0.18549,0.14417 0.47733,0.35954 0.1934,0.14241 0.20043,0.14241 0.2101,0.14241 0.218,0.14153 0.2268,0.14153 0.51426,0.31031 0.23295,0.13977 0.24175,0.1389 0.24966,0.13801 0.25756,0.13801 0.26636,0.13714 0.27515,0.13625 0.28218,0.13626 0.54415,0.26021 0.28833,0.13361 0.29625,0.13362 0.30416,0.13274 0.31207,0.13186 0.31998,0.13098 0.32789,0.13011 0.33581,0.12922 0.34371,0.12834 0.56437,0.20922 0.34811,0.12659 0.35514,0.12483 0.36306,0.12483 0.37097,0.12307 0.378,0.12306 0.38503,0.12132 0.39294,0.12131 0.39998,0.11955 0.40789,0.11868 0.41492,0.11691 0.42195,0.11692 0.55909,0.15384 0.42459,0.11428 0.42987,0.11252 0.43778,0.11164 0.44481,0.11076 0.45096,0.10989 0.45799,0.10812 0.46415,0.10725 0.47119,0.10549 0.47821,0.10461 0.48437,0.10285 0.49052,0.10197 0.49667,0.10109 0.50283,0.0993 0.50898,0.0976 0.51514,0.0967 0.50634,0.0949 0.51426,0.0932 0.51953,0.0932 0.52481,0.0905 0.53095,0.0897 0.53624,0.0888 0.54238,0.087 0.54766,0.0853 0.55206,0.0835 0.55821,0.0826 0.56261,0.0809 0.56787,0.0791 0.57316,0.0782 0.57755,0.0756 0.58282,0.0747 0.58634,0.073 0.59162,0.0712 0.59601,0.0703 0.6004,0.0677 0.6048,0.0668 0.6092,0.065 0.61271,0.0633 0.61623,0.0615 0.62062,0.0598 0.62414,0.058 0.62854,0.0563 0.63117,0.0545 0.30943,0.0264 0.62502,0.0519 0.62766,0.0501 0.63117,0.0483 0.63469,0.0475 0.63644,0.0448 0.63997,0.0431 0.6426,0.0413 0.64524,0.0404 0.64699,0.0378 0.64964,0.036 0.65227,0.0343 0.65402,0.0325 0.65667,0.0308 0.65754,0.029 0.66019,0.0264 0.66106,0.0255 0.66282,0.0237 0.66457,0.0211 0.66634,0.0193 0.66633,0.0185 0.6681,0.0158 0.66897,0.0141 0.66985,0.0114 0.67073,0.0105 0.67073,0.009 0.67161,0.006 0.67249,0.005 0.67161,0.003 0.67249,8.8e-4 0.67249,-8.8e-4 0.67161,-0.003 0.67249,-0.005 0.67161,-0.006 0.67073,-0.009 0.67073,-0.0105 0.66985,-0.0114 0.66897,-0.0141 0.6681,-0.0158 0.66633,-0.0185 0.66634,-0.0193 0.66457,-0.0211 0.66282,-0.0237 0.66106,-0.0255 0.66019,-0.0264 0.65842,-0.029 0.65579,-0.0308 0.65402,-0.0325 0.65227,-0.0343 0.64964,-0.036 0.64787,-0.0378 0.64436,-0.0404 0.6426,-0.0413 0.63997,-0.0431 0.63644,-0.0448 0.63469,-0.0475 0.63117,-0.0483 0.62766,-0.0501 0.62502,-0.0519 0.30943,-0.0264 0.63117,-0.0545 0.62854,-0.0563 0.62414,-0.058 0.62062,-0.0598 0.61623,-0.0615 0.61271,-0.0633 0.6092,-0.065 0.6048,-0.0668 0.6004,-0.0677 0.59601,-0.0703 0.59162,-0.0712 0.58634,-0.073 0.58282,-0.0747 0.57755,-0.0756 0.57316,-0.0782 0.56787,-0.0791 0.56261,-0.0809 0.55821,-0.0826 0.55206,-0.0835 0.54766,-0.0853 0.54238,-0.087 0.53624,-0.0888 0.53095,-0.0897 0.52481,-0.0905 0.51953,-0.0932 0.51426,-0.0932 0.50634,-0.0949 0.51514,-0.0967 0.50898,-0.0976 0.50283,-0.0993 0.49755,-0.10109 0.48964,-0.10197 0.48437,-0.10285 0.47821,-0.10461 0.47119,-0.10549 0.46415,-0.10725 0.45799,-0.10812 0.45096,-0.10989 0.44481,-0.11076 0.43778,-0.11164 0.43075,-0.11252 0.42371,-0.11428 0.55909,-0.15384 0.42195,-0.11692 0.41492,-0.11691 0.40789,-0.11868 0.39998,-0.11955 0.39294,-0.12131 0.38503,-0.12132 0.378,-0.12306 0.37097,-0.12307 0.36306,-0.12483 0.35514,-0.12483 0.34811,-0.12659 0.56437,-0.20922 0.34371,-0.12834 0.33581,-0.12922 0.32789,-0.13011 0.31998,-0.13098 0.31207,-0.13186 0.30416,-0.13274 0.29625,-0.13362 0.28833,-0.13361 0.54415,-0.26021 0.28218,-0.13626 0.27515,-0.13625 0.26636,-0.13714 0.25756,-0.13801 0.24966,-0.13801 0.24175,-0.1389 0.23295,-0.13977 0.51426,-0.31031 0.2268,-0.14153 0.218,-0.14153 0.2101,-0.14241 0.20043,-0.14241 0.1934,-0.14241 0.47733,-0.35954 0.18549,-0.14417 0.17669,-0.14504 0.1679,-0.14505 0.15999,-0.14593 0.43954,-0.40789 0.1512,-0.1468 0.14329,-0.1468 0.13449,-0.14681 0.40086,-0.458 0.12659,-0.14768 0.11691,-0.14856 0.10901,-0.14856 0.36393,-0.50899 0.10022,-0.14944 0.0914,-0.14944 0.32789,-0.56085 0.0826,-0.14944 0.0738,-0.15032 0.29449,-0.61535 0.065,-0.15032 0.26284,-0.67161 0.0563,-0.1512 0.23295,-0.73051 0.0475,-0.15032 0.20658,-0.79116 0.0387,-0.15032 0.18285,-0.85446 0.029,-0.15032 0.15999,-0.94236 0.0202,-0.15033 0.13801,-1.05312 0.11868,-1.18938 0.0114,-0.14857 0.10022,-1.34937 0.0835,-1.5331 0.0686,-1.7432 0.0545,-1.97527 0.0422,-2.23371 0.002,-0.14241 0.0325,-2.51239 0.0229,-2.81918 0.0149,-3.14883 0.009,-3.50309 0.004,-3.88198 0.002,-4.28546 0,-4.71182 0,-5.16454 -0.002,-5.56188 -0.004,-5.90559 -0.009,-6.19745 -0.0149,-6.43392 -0.022,-6.61764 z"
         id="path6"
         style="fill:#b3b3b3"
         inkscape:connector-curvature="0"
         sodipodi:nodetypes="ccccccccccccccccccccccccccccccccccccccccccccccccccccccccccccccccccccccccccccccccccccccccccccccccccccccccccccccccccccccccccccccccccccccccccccccccccccccccccccccccccccccccccccccccccccccccccccccccccccccccccccccccccccccccccccccccccccccccccccccccccccccccccccccccccccccccccccccccccccccccccccccccccccccccccccccccccccccccccccccccccccccccccccccccccccccccccccccccccccccccccccccccccccccccccccccccccccccccccccccccccccccccccccccccccccccccccccccccccccccccccccccccccccccccccccccccccccccccccccccccccccccccccccccccccccccccccccccccccccccccccccccccccccccccccccccccccccccccccccccccccccccccccccccccccccccccccccccccccccccccccccccccccccccccccccccccccccccccccccccccccccccccccccccccccccccccccccccccccccccccccccccccccccccccccccccccccccccccccccccccccccccccccccccccccccccccccccccccccccccccccccccccccccccccccccccccccccccccccccccccccccccccccccccccccccccccccccccccccccccccccccccccccccccccccccccccccccccccccccccccccccccccccccccccccccccccccccccccccccccccccccccccccccccccccccccccccccccccccccccccccccccccccc" />
    </g>
    <g
       id="strokes"
       inkscape:groupmode="layer"
       inkscape:label="strokes">
      <path
         d="m 244.88554,199.70471 -0.004,0.0132 -0.8949,2.98004 -0.9239,3.02049 -0.94412,3.03807 -0.95994,3.0451 -0.97138,3.0451 -0.97664,3.03543 -0.97929,3.01521 -0.97577,2.98708 -0.96785,2.94928 -0.95555,2.90269 -0.93797,2.84731 -0.91599,2.78138 -0.88962,2.70666 -0.85797,2.62402 -0.82194,2.52997 -0.78764,2.44469 -0.75424,2.3647 -0.72348,2.29174 -0.69271,2.2258 -0.66545,2.16603 -0.63909,2.11241 -0.61359,2.06581 -0.58985,2.02626 -0.56876,1.99373 -0.54854,1.96648 -0.5292,1.94626 -0.51338,1.93308 -0.49668,1.92692 -0.48348,1.92693 -0.47206,1.93307 -0.46064,1.94626 -0.4492,1.98494 -0.43778,2.04648 -0.42371,2.13438 -0.41053,2.24515 -0.39558,2.38228 -0.37976,2.54227 -0.36393,2.72776 -0.34636,2.93785 -0.32789,3.17169 -0.31031,3.43101 -0.28922,3.71495 -0.26987,4.0235 -0.2479,4.3558 -0.22504,4.71357 -0.20307,5.09597 -0.17845,5.5021 -0.15647,5.85461 -0.13626,6.15438 -0.11603,6.39963 -0.0985,6.59215 -0.0817,6.73016 -0.0677,6.81455 -0.0536,6.8462 -0.0413,6.82335 -0.0317,6.74774 -0.022,6.61676 -0.0149,6.43392 -0.009,6.19745 -0.004,5.90559 -0.002,5.56188 0,5.16454 0,4.71182 0.002,4.28546 0.004,3.88198 0.009,3.50309 0.0149,3.14883 0.0229,2.81918 0.0325,2.51239 0.002,0.14241 0.0422,2.23371 0.0545,1.97527 0.0686,1.7432 0.0835,1.5331 0.10022,1.34937 0.0114,0.14857 0.11868,1.18938 0.13801,1.054 0.0202,0.14945 0.15999,0.94236 0.029,0.15032 0.18285,0.85446 0.0387,0.15032 0.20658,0.79116 0.0475,0.15032 0.23295,0.73051 0.0563,0.1512 0.26284,0.67161 0.065,0.15032 0.29449,0.61535 0.0739,0.15032 0.0826,0.14944 0.32789,0.56085 0.0914,0.14944 0.10022,0.14944 0.36393,0.50899 0.10901,0.14856 0.11691,0.14856 0.12659,0.14768 0.40086,0.458 0.13449,0.14681 0.14329,0.1468 0.1512,0.1468 0.43954,0.40789 0.15999,0.14593 0.1679,0.14505 0.17669,0.14504 0.18549,0.14417 0.47733,0.35954 0.1934,0.14241 0.20043,0.14241 0.2101,0.14241 0.218,0.14153 0.2268,0.14153 0.51426,0.31031 0.23295,0.13977 0.24175,0.1389 0.24966,0.13801 0.25756,0.13801 0.26636,0.13714 0.27515,0.13625 0.28218,0.13626 0.54415,0.26021 0.28833,0.13361 0.29625,0.13362 0.30416,0.13274 0.31207,0.13186 0.31998,0.13098 0.32789,0.13011 0.33581,0.12922 0.34371,0.12834 0.56437,0.20922 0.34811,0.12659 0.35514,0.12483 0.36306,0.12483 0.37097,0.12307 0.378,0.12306 0.38503,0.12132 0.39294,0.12131 0.39998,0.11955 0.40789,0.11868 0.41492,0.11691 0.42195,0.11692 0.55909,0.15384 0.42459,0.11428 0.42987,0.11252 0.43778,0.11164 0.44481,0.11076 0.45096,0.10989 0.45799,0.10812 0.46415,0.10725 0.47119,0.10549 0.47821,0.10461 0.48437,0.10285 0.49052,0.10197 0.49667,0.10109 0.50283,0.0993 0.50898,0.0976 0.51514,0.0967 0.50634,0.0949 0.51426,0.0932 0.51953,0.0932 0.52481,0.0905 0.53095,0.0897 0.53624,0.0888 0.54238,0.087 0.54766,0.0853 0.55206,0.0835 0.55821,0.0826 0.56261,0.0809 0.56787,0.0791 0.57316,0.0782 0.57755,0.0756 0.58282,0.0747 0.58634,0.073 0.59162,0.0712 0.59601,0.0703 0.6004,0.0677 0.6048,0.0668 0.6092,0.065 0.61271,0.0633 0.61623,0.0615 0.62062,0.0598 0.62414,0.058 0.62854,0.0563 0.63117,0.0545 0.30943,0.0264 0.62502,0.0519 0.62766,0.0501 0.63117,0.0483 0.63469,0.0475 0.63644,0.0448 0.63997,0.0431 0.6426,0.0413 0.64524,0.0404 0.64699,0.0378 0.64964,0.036 0.65227,0.0343 0.65402,0.0325 0.65667,0.0308 0.65754,0.029 0.66019,0.0264 0.66106,0.0255 0.66282,0.0237 0.66457,0.0211 0.66634,0.0193 0.66633,0.0185 0.6681,0.0158 0.66897,0.0141 0.66985,0.0114 0.67073,0.0105 0.67073,0.009 0.67161,0.006 0.67249,0.005 0.67161,0.003 0.67249,8.8e-4 0.67249,-8.8e-4 0.67161,-0.003 0.67249,-0.005 0.67161,-0.006 0.67073,-0.009 0.67073,-0.0105 0.66985,-0.0114 0.66897,-0.0141 0.6681,-0.0158 0.66633,-0.0185 0.66634,-0.0193 0.66457,-0.0211 0.66282,-0.0237 0.66106,-0.0255 0.66019,-0.0264 0.65842,-0.029 0.65579,-0.0308 0.65402,-0.0325 0.65227,-0.0343 0.64964,-0.036 0.64787,-0.0378 0.64436,-0.0404 0.6426,-0.0413 0.63997,-0.0431 0.63644,-0.0448 0.63469,-0.0475 0.63117,-0.0483 0.62766,-0.0501 0.62502,-0.0519 0.30943,-0.0264 0.63117,-0.0545 0.62854,-0.0563 0.62414,-0.058 0.62062,-0.0598 0.61623,-0.0615 0.61271,-0.0633 0.6092,-0.065 0.6048,-0.0668 0.6004,-0.0677 0.59601,-0.0703 0.59162,-0.0712 0.58634,-0.073 0.58282,-0.0747 0.57755,-0.0756 0.57316,-0.0782 0.56787,-0.0791 0.56261,-0.0809 0.55821,-0.0826 0.55206,-0.0835 0.54766,-0.0853 0.54238,-0.087 0.53624,-0.0888 0.53095,-0.0897 0.52481,-0.0905 0.51953,-0.0932 0.51426,-0.0932 0.50634,-0.0949 0.51514,-0.0967 0.50898,-0.0976 0.50283,-0.0993 0.49755,-0.10109 0.48964,-0.10197 0.48437,-0.10285 0.47821,-0.10461 0.47119,-0.10549 0.46415,-0.10725 0.45799,-0.10812 0.45096,-0.10989 0.44481,-0.11076 0.43778,-0.11164 0.43075,-0.11252 0.42371,-0.11428 0.55909,-0.15384 0.42195,-0.11692 0.41492,-0.11691 0.40789,-0.11868 0.39998,-0.11955 0.39294,-0.12131 0.38503,-0.12132 0.378,-0.12306 0.37097,-0.12307 0.36306,-0.12483 0.35514,-0.12483 0.34811,-0.12659 0.56437,-0.20922 0.34371,-0.12834 0.33581,-0.12922 0.32789,-0.13011 0.31998,-0.13098 0.31207,-0.13186 0.30416,-0.13274 0.29625,-0.13362 0.28833,-0.13361 0.54415,-0.26021 0.28218,-0.13626 0.27515,-0.13625 0.26636,-0.13714 0.25756,-0.13801 0.24966,-0.13801 0.24175,-0.1389 0.23295,-0.13977 0.51426,-0.31031 0.2268,-0.14153 0.218,-0.14153 0.2101,-0.14241 0.20043,-0.14241 0.1934,-0.14241 0.47733,-0.35954 0.18549,-0.14417 0.17669,-0.14504 0.1679,-0.14505 0.15999,-0.14593 0.43954,-0.40789 0.1512,-0.1468 0.14329,-0.1468 0.13449,-0.14681 0.40086,-0.458 0.12659,-0.14768 0.11691,-0.14856 0.10901,-0.14856 0.36393,-0.50899 0.10022,-0.14944 0.0914,-0.14944 0.32789,-0.56085 0.0826,-0.14944 0.0738,-0.15032 0.29449,-0.61535 0.065,-0.15032 0.26284,-0.67161 0.0563,-0.1512 0.23295,-0.73051 0.0475,-0.15032 0.20658,-0.79116 0.0387,-0.15032 0.18285,-0.85446 0.029,-0.15032 0.15999,-0.94236 0.0202,-0.15033 0.13801,-1.05312 0.11868,-1.18938 0.0114,-0.14857 0.10022,-1.34937 0.0835,-1.5331 0.0686,-1.7432 0.0545,-1.97527 0.0422,-2.23371 0.002,-0.14241 0.0325,-2.51239 0.0229,-2.81918 0.0149,-3.14883 0.009,-3.50309 0.004,-3.88198 0.002,-4.28546 0,-4.71182 0,-5.16454 -0.002,-5.56188 -0.004,-5.90559 -0.009,-6.19745 -0.0149,-6.43392 -0.022,-6.61764 -0.0317,-6.74686 -0.0413,-6.82335 -0.0536,-6.8462 -0.0677,-6.81455 -0.0817,-6.73016 -0.0985,-6.59215 -0.11603,-6.39963 -0.13626,-6.15438 -0.15647,-5.85461 -0.17845,-5.5021 -0.20307,-5.09597 -0.22504,-4.71357 -0.2479,-4.3558 -0.26987,-4.0235 -0.28922,-3.71495 -0.31031,-3.43101 -0.32789,-3.17169 -0.34636,-2.93785 -0.36393,-2.72776 -0.37976,-2.54227 -0.39558,-2.38228 -0.41053,-2.24515 -0.42371,-2.13438 -0.43778,-2.04648 -0.4492,-1.98494 -0.46064,-1.94626 -0.47118,-1.93307 -0.48436,-1.92693 -0.49668,-1.92692 -0.51338,-1.93308 -0.5292,-1.94626 -0.54854,-1.96648 -0.56876,-1.99373 -0.58985,-2.02626 -0.61359,-2.06581 -0.63909,-2.11241 -0.66545,-2.16603 -0.69271,-2.2258 -0.72348,-2.29174 -0.75424,-2.3647 -0.78764,-2.44469 -0.82194,-2.52997 -0.85797,-2.62402 -0.88962,-2.70666 -0.91599,-2.78138 -0.93797,-2.84731 -0.95555,-2.90269 -0.96785,-2.94928 -0.97577,-2.98708 -0.97929,-3.01521 -0.97664,-3.03543 -0.97138,-3.0451 -0.95994,-3.0451 -0.94412,-3.03807 -0.9239,-3.02049 -0.89402,-2.97741 -0.005,-0.0158"
         id="path9"
         style="fill:#999999"
         inkscape:connector-curvature="0"
         sodipodi:nodetypes="ccccccccccccccccccccccccccccccccccccccccccccccccccccccccccccccccccccccccccccccccccccccccccccccccccccccccccccccccccccccccccccccccccccccccccccccccccccccccccccccccccccccccccccccccccccccccccccccccccccccccccccccccccccccccccccccccccccccccccccccccccccccccccccccccccccccccccccccccccccccccccccccccccccccccccccccccccccccccccccccccccccccccccccccccccccccccccccccccccccccccccccccccccccccccccccccccccccccccccccccccccccccccccccccccccccccccccccccccccc" />
      <path
         d="m 294.10206,83.464354 0.0413,-0.575792 0.0528,-0.548539 0.0563,-0.44481 0.005,-0.04132"
         id="path19"
         inkscape:connector-curvature="0"
         sodipodi:nodetypes="ccccc" />
      <path
         d="m 255.73679,80.755938 0.0114,0.04835 0.08,0.317344 0.0747,0.361298"
         id="path21"
         inkscape:connector-curvature="0"
         sodipodi:nodetypes="cccc" />
      <path
         d="m 255.9003,81.467106 0.003,0.01582 0.0677,0.412284"
         id="path23"
         inkscape:connector-curvature="0"
         sodipodi:nodetypes="ccc" />
      <path
         d="m 255.96535,81.853897 0.005,0.04132 0.0563,0.44481 0.0528,0.548539 0.0413,0.575792"
         id="path25"
         inkscape:connector-curvature="0"
         sodipodi:nodetypes="ccccc" />
      <path
         d="m 256.12094,83.463475 0,8.79e-4 0.0369,0.705893 0.0308,0.802591 0.0246,0.908959 0.0185,1.027633 0.0141,1.134001"
         id="path29"
         inkscape:connector-curvature="0"
         sodipodi:nodetypes="ccccccc" />
      <path
         d="m 293.97723,88.043431 0.0141,-1.134001 0.0185,-1.027633 0.0246,-0.908959 0.0308,-0.802591 0.0369,-0.705893 0,-8.79e-4"
         id="path31"
         inkscape:connector-curvature="0"
         sodipodi:nodetypes="ccccccc" />
      <path
         d="m 294.86421,79.747644 0.10285,-0.207461 0.10725,-0.19779 0.0202,-0.0378"
         id="path35"
         inkscape:connector-curvature="0"
         sodipodi:nodetypes="cccc" />
      <path
         d="m 294.32007,81.48205 0.0747,-0.360419 0.08,-0.317344 0.0114,-0.04835"
         id="path37"
         inkscape:connector-curvature="0"
         sodipodi:nodetypes="cccc" />
      <path
         d="m 295.19474,79.134932 0.0985,-0.159991 0.12746,-0.201307 0.12395,-0.193395 0.12043,-0.189001 0.11516,-0.186363 0.0325,-0.05274 0.109,-0.187242 0.029,-0.05274 0.1011,-0.189 0.0264,-0.05362 0.0914,-0.193396 0.0229,-0.05362 0.0809,-0.199549 0.0202,-0.0545 0.0712,-0.205703 0.0176,-0.0545 0.0615,-0.212735 0.0141,-0.0545 0.0527,-0.218009 0.0439,-0.222405 0.0114,-0.05538 0.0369,-0.22768 0.008,-0.05538 0.0308,-0.232954 0.0237,-0.23647 0.004,-0.05626 0.0193,-0.240865 0.0141,-0.244382 0.0105,-0.248777 0.006,-0.251414 0.002,-0.05626 0.004,-0.25493 0.002,-0.257568 8.8e-4,-0.260204 0,-0.261963 0,-0.264601 0,-0.266358 0,-0.267237 0,-0.268117 0,-0.268995 0,-0.269875 0,-0.268995 0,-0.269875 0,-0.268996 0,-0.267237 0,-0.267237 0,-0.264601 0,-0.263721 0,-0.261084 0,-0.259325 0,-0.25581 0,-0.252293 -8.8e-4,-0.250535 -8.8e-4,-0.24614 -0.003,-0.243502 -0.004,-0.239987 -0.007,-0.236469 -0.002,-0.05802 -0.009,-0.233833 -0.0123,-0.229437 -0.0158,-0.2268 -0.0193,-0.222405 -0.005,-0.0589 -0.0237,-0.218888 -0.0281,-0.216252 -0.009,-0.05802 -0.0334,-0.211856 -0.0396,-0.20834 -0.0123,-0.05802 -0.0448,-0.204823 -0.0149,-0.05802 -0.0519,-0.200428 -0.0589,-0.196912 -0.0185,-0.05802 -0.0659,-0.191638 -0.0211,-0.05802 -0.0747,-0.187242 -0.0237,-0.05714 -0.0826,-0.181967 -0.0272,-0.05714 -0.0914,-0.175814 -0.0308,-0.05714 -0.0334,-0.05626 -0.10021,-0.169661 -0.0369,-0.05626 -0.10988,-0.162628 -0.0396,-0.05538 -0.0431,-0.05626 -0.11955,-0.154716 -0.0457,-0.05538 -0.0484,-0.05626 -0.1301,-0.145926 -0.0519,-0.05538 -0.0545,-0.0545 -0.13977,-0.137135 -0.058,-0.0545 -0.0598,-0.0545 -0.0633,-0.0545 -0.1512,-0.127465 -0.0659,-0.05362 -0.0686,-0.05362 -0.0721,-0.05362 -0.16087,-0.116037 -0.0738,-0.05274 -0.0773,-0.05274 -0.08,-0.05274 -0.0826,-0.05186 -0.17054,-0.105489 -0.0853,-0.05099 -0.0879,-0.05186 -0.0914,-0.05099 -0.0932,-0.05099 -0.0967,-0.05011 -0.17845,-0.0923 -0.0985,-0.05011 -0.10109,-0.04923 -0.10461,-0.04923 -0.10637,-0.04923 -0.109,-0.04835 -0.11252,-0.04835 -0.18461,-0.07824 -0.11428,-0.04747 -0.11603,-0.04747 -0.11868,-0.04747 -0.12131,-0.04659 -0.12395,-0.04571 -0.12659,-0.04659 -0.12922,-0.04571 -0.13186,-0.04483 -0.1345,-0.04483 -0.18548,-0.06153 -0.13538,-0.04395 -0.13801,-0.04395 -0.13977,-0.04307 -0.14241,-0.04307 -0.14505,-0.04308 -0.14768,-0.04219 -0.14945,-0.04132 -0.15208,-0.04132 -0.15471,-0.04132 -0.15648,-0.04044 -0.15911,-0.03956 -0.16087,-0.03956 -0.17669,-0.04307 -0.16087,-0.03868 -0.16351,-0.0378 -0.16614,-0.0378 -0.1679,-0.0378 -0.16967,-0.03692 -0.17141,-0.03604 -0.17406,-0.03604 -0.17669,-0.03516 -0.17758,-0.03516 -0.1802,-0.03428 -0.18197,-0.03428 -0.18373,-0.03341 -0.18548,-0.03253 -0.18724,-0.03252 -0.189,-0.03253 -0.19164,-0.03077 -0.19252,-0.03077 -0.19515,-0.03077 -0.19603,-0.02989 -0.19779,-0.02901 -0.19955,-0.02813 -0.20131,-0.02813 -0.20307,-0.02813 -0.20394,-0.02637 -0.12747,-0.0167 -0.20306,-0.02637 -0.20482,-0.02549 -0.20571,-0.02461 -0.20746,-0.02461 -0.20834,-0.02374 -0.21009,-0.02286 -0.21186,-0.02286 -0.21186,-0.02198 -0.21449,-0.0211 -0.21449,-0.02022 -0.21625,-0.02022 -0.21801,-0.02022 -0.21801,-0.01846 -0.21977,-0.01846 -0.22065,-0.01758 -0.22152,-0.01758 -0.22241,-0.0167 -0.22328,-0.01582 -0.22417,-0.01495 -0.22504,-0.01494 -0.22592,-0.01407 -0.2268,-0.01319 -0.22768,-0.01231 -0.22768,-0.01231 -0.22943,-0.01143 -0.22944,-0.01055 -0.23032,-0.01055 -0.23031,-0.0097 -0.2312,-0.0088 -0.2312,-0.0079 -0.23207,-0.007 -0.23295,-0.007 -0.23296,-0.0062 -0.23295,-0.0062 -0.23383,-0.0044 -0.23384,-0.0044 -0.23383,-0.0035 -0.23383,-0.0035 -0.23471,-0.0018 -0.23384,-0.0018 -0.23471,-8.79e-4 -0.23471,-8.79e-4 -0.23471,8.79e-4 -0.23471,8.79e-4 -0.23384,0.0018 -0.23471,0.0018 -0.23383,0.0035 -0.23383,0.0035 -0.23384,0.0044 -0.23383,0.0044 -0.23295,0.0062 -0.23296,0.0062 -0.23295,0.007 -0.23207,0.007 -0.2312,0.0079 -0.2312,0.0088 -0.23031,0.0097 -0.23032,0.01055 -0.22944,0.01055 -0.22855,0.01143 -0.22856,0.01231 -0.22768,0.01231 -0.2268,0.01319 -0.22592,0.01407 -0.22504,0.01494 -0.22417,0.01495 -0.22328,0.01582 -0.22241,0.0167 -0.22152,0.01758 -0.22065,0.01758 -0.21977,0.01846 -0.21801,0.01846 -0.21801,0.02022 -0.21625,0.01934 -0.21449,0.0211 -0.21361,0.0211 -0.21274,0.02198 -0.21186,0.02286 -0.21009,0.02286 -0.20834,0.02374 -0.20746,0.02461 -0.20571,0.02461 -0.20482,0.02549 -0.20306,0.02637 -0.12747,0.0167 -0.20394,0.02637 -0.20307,0.02813 -0.20131,0.02813 -0.19955,0.02813 -0.19779,0.02901 -0.19603,0.02989 -0.19515,0.03077 -0.19252,0.03077 -0.19164,0.03165 -0.189,0.03165 -0.18724,0.03252 -0.18548,0.03253 -0.18373,0.03341 -0.18197,0.03428 -0.1802,0.03428 -0.17758,0.03516 -0.17669,0.03516 -0.17406,0.03604 -0.17141,0.03604 -0.16967,0.03692 -0.1679,0.0378 -0.16614,0.0378 -0.16351,0.0378 -0.16087,0.03868 -0.17669,0.04307 -0.16087,0.03956 -0.15911,0.03956 -0.15648,0.04044 -0.15471,0.04132 -0.15208,0.04132 -0.14945,0.04132 -0.14768,0.04219 -0.14505,0.04308 -0.14241,0.04307 -0.13977,0.04307 -0.13801,0.04395 -0.13538,0.04395 -0.18548,0.06153 -0.1345,0.04483 -0.13186,0.04483 -0.12922,0.04571 -0.12659,0.04659 -0.12395,0.04571 -0.12131,0.04659 -0.11868,0.04747 -0.11603,0.04747 -0.11428,0.04747 -0.18461,0.07824 -0.11252,0.04835 -0.109,0.04835 -0.10637,0.04923 -0.10461,0.04923 -0.10109,0.04923 -0.0985,0.05011 -0.17845,0.0923 -0.0967,0.05011 -0.0932,0.05099 -0.0914,0.05099 -0.0879,0.05186 -0.0853,0.05099 -0.17054,0.105489 -0.0826,0.05186 -0.08,0.05274 -0.0773,0.05186 -0.0739,0.05275 -0.16087,0.116916 -0.0721,0.05362 -0.0686,0.05362 -0.0659,0.05362 -0.1512,0.127465 -0.0633,0.0545 -0.0598,0.0545 -0.058,0.0545 -0.13977,0.137135 -0.0545,0.0545 -0.0519,0.05538 -0.1301,0.145926 -0.0483,0.05626 -0.0457,0.05538 -0.11955,0.154716 -0.0431,0.05538 -0.0396,0.05626 -0.10988,0.162628 -0.0369,0.05626 -0.10021,0.169661 -0.0334,0.05626 -0.0308,0.05714 -0.0914,0.175814 -0.0272,0.05714 -0.0826,0.181967 -0.0237,0.05714 -0.0747,0.187242 -0.0211,0.05802 -0.0659,0.191638 -0.0185,0.05802 -0.0589,0.196912 -0.0519,0.200428 -0.0149,0.05802 -0.0448,0.204823 -0.0123,0.05802 -0.0396,0.20834 -0.0334,0.211856 -0.009,0.05802 -0.0281,0.216252 -0.0237,0.218888 -0.005,0.0589 -0.0193,0.222405 -0.0158,0.2268 -0.0123,0.229437 -0.009,0.233833 -0.002,0.05802 -0.007,0.236469 -0.004,0.239987 -0.003,0.243502 -8.8e-4,0.24614 -8.8e-4,0.250535 0,0.252293 0,0.25581 0,0.259325 0,0.261084 0,0.263721 0,0.264601 0,0.267237 0,0.267237 0,0.268996 0,0.269875 0,0.268995 0,0.269875 0,0.268995 0,0.268117 0,0.267237 0,0.266358 0,0.264601 0,0.261963 8.8e-4,0.260204 0.002,0.257568 0.004,0.25493 0.002,0.05626 0.006,0.251414 0.0105,0.248777 0.0141,0.244382 0.0193,0.240865 0.004,0.05626 0.0237,0.23647 0.0308,0.232954 0.008,0.05538 0.0369,0.22768 0.0114,0.05538 0.0439,0.222405 0.0527,0.218009 0.0141,0.0545 0.0615,0.212735 0.0176,0.0545 0.0712,0.205703 0.0202,0.0545 0.0809,0.199549 0.0229,0.05362 0.0914,0.193396 0.0264,0.05362 0.1011,0.189 0.029,0.05274 0.109,0.187242 0.0325,0.05274 0.11516,0.186363 0.12043,0.189001 0.12395,0.193395 0.12746,0.201307 0.0985,0.159991"
         id="path39"
         style="fill:#b3b3b3"
         inkscape:connector-curvature="0"
         sodipodi:nodetypes="ccccccccccccccccccccccccccccccccccccccccccccccccccccccccccccccccccccccccccccccccccccccccccccccccccccccccccccccccccccccccccccccccccccccccccccccccccccccccccccccccccccccccccccccccccccccccccccccccccccccccccccccccccccccccccccccccccccccccccccccccccccccccccccccccccccccccccccccccccccccccccccccccccccccccccccccccccccccccccccccccccccccccccccccccccccccccccccccccccccccccccccccccccccccccccccccccccccccccccccccccccccccccccccccccccccccc" />
      <path
         d="m 255.02738,79.133174 8.8e-4,0.0018 0.12043,0.207461"
         id="path41"
         inkscape:connector-curvature="0"
         sodipodi:nodetypes="ccc" />
      <path
         d="m 255.12847,79.304593 0.0202,0.0378 0.10725,0.19779 0.10285,0.206582"
         id="path43"
         inkscape:connector-curvature="0"
         sodipodi:nodetypes="cccc" />
      <path
         d="m 255.35615,79.741491 0.003,0.0053 0.10373,0.231195"
         id="path45"
         inkscape:connector-curvature="0"
         sodipodi:nodetypes="ccc" />
      <path
         d="m 255.45637,79.961258 0.006,0.0167 0.10021,0.251415"
         id="path47"
         inkscape:connector-curvature="0"
         sodipodi:nodetypes="ccc" />
      <path
         d="m 255.55306,80.203002 0.01,0.02637 0.0958,0.27427"
         id="path49"
         inkscape:connector-curvature="0"
         sodipodi:nodetypes="ccc" />
      <path
         d="m 255.64712,80.466724 0.0114,0.03692 0.0897,0.300642"
         id="path51"
         inkscape:connector-curvature="0"
         sodipodi:nodetypes="ccc" />
      <path
         d="m 294.25238,81.895213 0.0677,-0.413163 0.003,-0.01494"
         id="path53"
         inkscape:connector-curvature="0"
         sodipodi:nodetypes="ccc" />
      <path
         d="m 294.47478,80.804287 0.0897,-0.301522 0.0114,-0.03604"
         id="path55"
         inkscape:connector-curvature="0"
         sodipodi:nodetypes="ccc" />
      <path
         d="m 294.56445,80.502765 0.0958,-0.27339 0.01,-0.02637"
         id="path57"
         inkscape:connector-curvature="0"
         sodipodi:nodetypes="ccc" />
      <path
         d="m 294.66027,80.229375 0.10021,-0.250535 0.006,-0.01758"
         id="path59"
         inkscape:connector-curvature="0"
         sodipodi:nodetypes="ccc" />
      <path
         d="m 294.76048,79.97884 0.10373,-0.231196 0.003,-0.0062"
         id="path61"
         inkscape:connector-curvature="0"
         sodipodi:nodetypes="ccc" />
      <path
         d="m 295.07431,79.342393 0.12043,-0.207461 8.8e-4,-0.0018"
         id="path63"
         inkscape:connector-curvature="0"
         sodipodi:nodetypes="ccc" />
    </g>
  </g>
</svg>
