<?xml version="1.0" encoding="UTF-8" standalone="no"?>
<!-- Created with Inkscape (http://www.inkscape.org/) -->

<svg
   xmlns:dc="http://purl.org/dc/elements/1.1/"
   xmlns:cc="http://creativecommons.org/ns#"
   xmlns:rdf="http://www.w3.org/1999/02/22-rdf-syntax-ns#"
   xmlns:svg="http://www.w3.org/2000/svg"
   xmlns="http://www.w3.org/2000/svg"
   version="1.1"
   width="900"
   height="900"
   viewBox="0 0 900 900"
   id="Layer_1"
   xml:space="preserve"><metadata
     id="metadata9"><rdf:RDF><cc:Work
         rdf:about=""><dc:format>image/svg+xml</dc:format><dc:type
           rdf:resource="http://purl.org/dc/dcmitype/StillImage" /><dc:title></dc:title></cc:Work></rdf:RDF></metadata><defs
     id="defs7" /><path
     d="M 337.0657,598.54816 242.18071,762.89632 C 140.81411,695.41029 73.879736,580.15959 73.879736,449.23301 73.879736,249.21104 229.99865,86.05886 426.94017,73.829729 V 263.32463 c -92.63275,11.72307 -164.76153,90.14957 -164.76153,185.90838 0,61.09564 29.69827,114.92853 74.88706,149.31515 z M 599.79269,335.82117 764.14085,240.93618 C 700.7459,145.68341 595.10433,81.323437 474.01491,73.829729 V 263.32463 c 51.30409,6.4816 95.89709,33.2833 125.77778,72.49654 z m 187.65604,-53.9697 -163.42874,94.37894 c 9.46937,22.43405 14.75645,47.12033 14.75645,73.0026 0,103.84979 -84.44911,188.2989 -188.2989,188.2989 -25.88227,0 -50.56855,-5.24147 -73.0026,-14.75645 L 283.096,786.2042 c 50.47735,25.14672 107.15973,39.62809 167.38154,39.62809 207.97466,0 376.5978,-168.62314 376.5978,-376.59781 0,-60.22475 -14.48136,-116.90713 -39.62661,-167.38301 z"
     id="path3"
     style="fill:#999999;stroke:none" /></svg>