<?xml version="1.0" encoding="UTF-8" standalone="no"?>
<!-- Generated by IcoMoon.io -->

<svg
   xmlns:dc="http://purl.org/dc/elements/1.1/"
   xmlns:cc="http://creativecommons.org/ns#"
   xmlns:rdf="http://www.w3.org/1999/02/22-rdf-syntax-ns#"
   xmlns:svg="http://www.w3.org/2000/svg"
   xmlns="http://www.w3.org/2000/svg"
   xmlns:sodipodi="http://sodipodi.sourceforge.net/DTD/sodipodi-0.dtd"
   xmlns:inkscape="http://www.inkscape.org/namespaces/inkscape"
   version="1.1"
   width="76"
   height="76"
   viewBox="0 0 76 76"
   id="svg2"
   inkscape:version="0.91 r13725"
   sodipodi:docname="play-icon.svg">
  <metadata
     id="metadata10">
    <rdf:RDF>
      <cc:Work
         rdf:about="">
        <dc:format>image/svg+xml</dc:format>
        <dc:type
           rdf:resource="http://purl.org/dc/dcmitype/StillImage" />
        <dc:title></dc:title>
      </cc:Work>
    </rdf:RDF>
  </metadata>
  <defs
     id="defs8">
    <filter
       inkscape:menu="Shadows and Glows"
       inkscape:menu-tooltip="Cut out, add inner shadow and colorize some parts of an image"
       style="color-interpolation-filters:sRGB;"
       inkscape:label="Emergence"
       id="filter4224">
      <feColorMatrix
         values="0 0 0 0 0 0 0 0 0 0 0 0 0 0 0 0.21 0.72 0.07 0 0 "
         result="result1"
         id="feColorMatrix4226" />
      <feColorMatrix
         values="1 0 0 0 0 0 1 0 0 0 0 0 1 0 0 0 0 0 2 0 "
         result="result9"
         id="feColorMatrix4228" />
      <feComposite
         in2="result9"
         in="SourceGraphic"
         operator="in"
         result="result4"
         id="feComposite4230" />
      <feFlood
         result="result2"
         flood-color="rgb(0,0,0)"
         id="feFlood4232" />
      <feComposite
         in2="result9"
         operator="in"
         result="result10"
         id="feComposite4234" />
      <feComposite
         in2="result4"
         operator="atop"
         id="feComposite4236" />
      <feGaussianBlur
         stdDeviation="3"
         result="result8"
         id="feGaussianBlur4238" />
      <feOffset
         dx="3"
         dy="3"
         result="result3"
         in="result8"
         id="feOffset4240" />
      <feFlood
         flood-opacity="1"
         flood-color="rgb(219,173,62)"
         result="result5"
         id="feFlood4242" />
      <feMerge
         result="result6"
         id="feMerge4244">
        <feMergeNode
           in="result5"
           id="feMergeNode4246" />
        <feMergeNode
           in="result3"
           id="feMergeNode4248" />
        <feMergeNode
           in="result4"
           id="feMergeNode4250" />
      </feMerge>
      <feComposite
         in2="SourceGraphic"
         operator="in"
         result="result7"
         id="feComposite4252" />
    </filter>
    <filter
       inkscape:collect="always"
       style="color-interpolation-filters:sRGB"
       id="filter4683"
       x="-0.246"
       width="1.492"
       y="-0.246"
       height="1.492">
      <feGaussianBlur
         inkscape:collect="always"
         stdDeviation="3.28"
         id="feGaussianBlur4685" />
    </filter>
    <filter
       inkscape:collect="always"
       style="color-interpolation-filters:sRGB"
       id="filter4769"
       x="-0.2016"
       width="1.4032"
       y="-0.2016"
       height="1.4032">
      <feGaussianBlur
         inkscape:collect="always"
         stdDeviation="2.688"
         id="feGaussianBlur4771" />
    </filter>
  </defs>
  <sodipodi:namedview
     pagecolor="#ffffff"
     bordercolor="#666666"
     borderopacity="1"
     objecttolerance="10"
     gridtolerance="10"
     guidetolerance="10"
     inkscape:pageopacity="0"
     inkscape:pageshadow="2"
     inkscape:window-width="1447"
     inkscape:window-height="863"
     id="namedview6"
     showgrid="false"
     inkscape:zoom="7.375"
     inkscape:cx="32.542373"
     inkscape:cy="37.694915"
     inkscape:window-x="0"
     inkscape:window-y="0"
     inkscape:window-maximized="0"
     inkscape:current-layer="layer3" />
  <g
     inkscape:groupmode="layer"
     id="layer1"
     inkscape:label="Layer 1"
     style="display:none">
    <rect
       style="opacity:1;fill:#060606;fill-opacity:1;stroke:none;stroke-width:2;stroke-miterlimit:4;stroke-dasharray:none;stroke-opacity:0"
       id="rect4257"
       width="61.288136"
       height="56.40678"
       x="7.3559322"
       y="9.7966099" />
  </g>
  <g
     inkscape:groupmode="layer"
     id="layer4"
     inkscape:label="glow-emphasis"
     style="display:none;opacity:0.28000004">
    <path
       d="m 34.116,30.648 c 3.886,2.451 7.773,4.902 11.659,7.352 -3.886,2.451 -7.773,4.901 -11.659,7.352 0,-4.901 0,-9.803 0,-14.704 z M 38,22 c -8.834,0 -16,7.166 -16,16 0,8.834 7.166,16 16,16 8.834,0 16,-7.166 16,-16 0,-8.834 -7.166,-16 -16,-16 z m 0,2.901 c 7.232,0 13.099,5.867 13.099,13.099 0,7.232 -5.867,13.099 -13.099,13.099 -7.232,0 -13.099,-5.867 -13.099,-13.099 0,-7.232 5.867,-13.099 13.099,-13.099 z"
       id="path4-1"
       style="display:inline;fill:#f8f8f8;fill-opacity:1;filter:url(#filter4769)"
       inkscape:connector-curvature="0"
       class="glow-hide" />
  </g>
  <g
     inkscape:groupmode="layer"
     id="layer2"
     inkscape:label="glow"
     style="display:none">
    <path
       d="m 34.116,30.648 c 3.886,2.451 7.773,4.902 11.659,7.352 -3.886,2.451 -7.773,4.901 -11.659,7.352 0,-4.901 0,-9.803 0,-14.704 z M 38,22 c -8.834,0 -16,7.166 -16,16 0,8.834 7.166,16 16,16 8.834,0 16,-7.166 16,-16 0,-8.834 -7.166,-16 -16,-16 z m 0,2.901 c 7.232,0 13.099,5.867 13.099,13.099 0,7.232 -5.867,13.099 -13.099,13.099 -7.232,0 -13.099,-5.867 -13.099,-13.099 0,-7.232 5.867,-13.099 13.099,-13.099 z"
       id="path4"
       style="fill:#f8f8f8;fill-opacity:1;filter:url(#filter4683)"
       inkscape:connector-curvature="0"
       class="glow-hide" />
  </g>
  <g
     inkscape:groupmode="layer"
     id="layer3"
     inkscape:label="icon"
     style="display:inline">
    <path
       d="m 34.116,30.648 c 3.886,2.451 7.773,4.902 11.659,7.352 -3.886,2.451 -7.773,4.901 -11.659,7.352 0,-4.901 0,-9.803 0,-14.704 z M 38,22 c -8.834,0 -16,7.166 -16,16 0,8.834 7.166,16 16,16 8.834,0 16,-7.166 16,-16 0,-8.834 -7.166,-16 -16,-16 z m 0,2.901 c 7.232,0 13.099,5.867 13.099,13.099 0,7.232 -5.867,13.099 -13.099,13.099 -7.232,0 -13.099,-5.867 -13.099,-13.099 0,-7.232 5.867,-13.099 13.099,-13.099 z"
       id="path4-6"
       style="fill:#bbbbbb;fill-opacity:1"
       inkscape:connector-curvature="0" />
  </g>
</svg>
